<svg width="104" height="33" viewBox="0 0 104 33" fill="none" xmlns="http://www.w3.org/2000/svg">
<rect x="0.5" y="0.5" width="103" height="32" rx="16" fill="white" stroke="white"/>
<path d="M29.291 17.6013C29.2135 18.6723 28.8171 19.5154 28.1016 20.1306C27.3906 20.7458 26.4518 21.0535 25.2852 21.0535C24.0091 21.0535 23.0042 20.6251 22.2705 19.7683C21.5413 18.907 21.1768 17.7266 21.1768 16.2273V15.6189C21.1768 14.6619 21.3454 13.8188 21.6826 13.0896C22.0199 12.3604 22.5007 11.8022 23.125 11.4148C23.7539 11.0229 24.4831 10.8269 25.3125 10.8269C26.4609 10.8269 27.3861 11.1345 28.0879 11.7498C28.7897 12.365 29.1953 13.2286 29.3047 14.3406H27.2539C27.2038 13.698 27.0238 13.2332 26.7139 12.946C26.4085 12.6544 25.9414 12.5085 25.3125 12.5085C24.6289 12.5085 24.1162 12.7546 23.7744 13.2468C23.4372 13.7345 23.264 14.4932 23.2549 15.5232V16.2751C23.2549 17.3507 23.4167 18.1368 23.7402 18.6335C24.0684 19.1303 24.5833 19.3787 25.2852 19.3787C25.9186 19.3787 26.3903 19.2351 26.7002 18.948C27.0146 18.6563 27.1947 18.2074 27.2402 17.6013H29.291ZM34.6641 15.3728C34.3952 15.3363 34.1582 15.3181 33.9531 15.3181C33.2057 15.3181 32.7158 15.571 32.4834 16.0769V20.9167H30.5078V13.5203H32.374L32.4287 14.4021C32.8252 13.7231 33.3743 13.3835 34.0762 13.3835C34.2949 13.3835 34.5 13.4132 34.6914 13.4724L34.6641 15.3728ZM38.8887 21.0535C37.804 21.0535 36.9199 20.7208 36.2363 20.0554C35.5573 19.3901 35.2178 18.5037 35.2178 17.3962V17.2048C35.2178 16.462 35.3613 15.7989 35.6484 15.2156C35.9355 14.6277 36.3411 14.1765 36.8652 13.8621C37.3939 13.5431 37.9954 13.3835 38.6699 13.3835C39.6816 13.3835 40.4769 13.7026 41.0557 14.3406C41.639 14.9786 41.9307 15.8832 41.9307 17.0544V17.8611H37.2207C37.2845 18.3442 37.4759 18.7315 37.7949 19.0232C38.1185 19.3149 38.5264 19.4607 39.0186 19.4607C39.7796 19.4607 40.3743 19.185 40.8027 18.6335L41.7734 19.7205C41.4772 20.1397 41.0762 20.4679 40.5703 20.7048C40.0645 20.9373 39.5039 21.0535 38.8887 21.0535ZM38.6631 14.9832C38.2712 14.9832 37.9521 15.1153 37.7061 15.3796C37.4645 15.644 37.3096 16.0222 37.2412 16.5144H39.9893V16.3572C39.9801 15.9197 39.8617 15.5824 39.6338 15.3455C39.4059 15.1039 39.0824 14.9832 38.6631 14.9832ZM47.3447 20.9167C47.2536 20.739 47.1875 20.518 47.1465 20.2537C46.668 20.7869 46.0459 21.0535 45.2803 21.0535C44.5557 21.0535 43.9541 20.8438 43.4756 20.4246C43.0016 20.0053 42.7646 19.4766 42.7646 18.8386C42.7646 18.0548 43.054 17.4532 43.6328 17.0339C44.2161 16.6147 45.057 16.4028 46.1553 16.3982H47.0645V15.9744C47.0645 15.6326 46.9756 15.3591 46.7979 15.1541C46.6247 14.949 46.349 14.8464 45.9707 14.8464C45.638 14.8464 45.376 14.9262 45.1846 15.0857C44.9977 15.2452 44.9043 15.4639 44.9043 15.7419H42.9287C42.9287 15.3136 43.0609 14.9171 43.3252 14.5525C43.5895 14.1879 43.9632 13.9031 44.4463 13.698C44.9294 13.4884 45.4717 13.3835 46.0732 13.3835C46.9847 13.3835 47.707 13.6137 48.2402 14.074C48.778 14.5297 49.0469 15.1723 49.0469 16.0017V19.2078C49.0514 19.9096 49.1494 20.4405 49.3408 20.8005V20.9167H47.3447ZM45.7109 19.5427C46.0026 19.5427 46.2715 19.4789 46.5176 19.3513C46.7637 19.2192 46.946 19.0437 47.0645 18.825V17.5535H46.3262C45.3372 17.5535 44.8109 17.8953 44.7471 18.5789L44.7402 18.6951C44.7402 18.9412 44.8268 19.144 45 19.3035C45.1732 19.463 45.4102 19.5427 45.7109 19.5427ZM52.9297 11.7019V13.5203H54.1943V14.9695H52.9297V18.6609C52.9297 18.9343 52.9821 19.1303 53.0869 19.2488C53.1917 19.3673 53.3923 19.4265 53.6885 19.4265C53.9072 19.4265 54.1009 19.4106 54.2695 19.3787V20.8757C53.8822 20.9942 53.4834 21.0535 53.0732 21.0535C51.6878 21.0535 50.9814 20.3539 50.9541 18.9548V14.9695H49.874V13.5203H50.9541V11.7019H52.9297ZM58.6992 21.0535C57.6146 21.0535 56.7305 20.7208 56.0469 20.0554C55.3678 19.3901 55.0283 18.5037 55.0283 17.3962V17.2048C55.0283 16.462 55.1719 15.7989 55.459 15.2156C55.7461 14.6277 56.1517 14.1765 56.6758 13.8621C57.2044 13.5431 57.806 13.3835 58.4805 13.3835C59.4922 13.3835 60.2874 13.7026 60.8662 14.3406C61.4495 14.9786 61.7412 15.8832 61.7412 17.0544V17.8611H57.0312C57.0951 18.3442 57.2865 18.7315 57.6055 19.0232C57.929 19.3149 58.3369 19.4607 58.8291 19.4607C59.5902 19.4607 60.1849 19.185 60.6133 18.6335L61.584 19.7205C61.2878 20.1397 60.8867 20.4679 60.3809 20.7048C59.875 20.9373 59.3145 21.0535 58.6992 21.0535ZM58.4736 14.9832C58.0817 14.9832 57.7627 15.1153 57.5166 15.3796C57.2751 15.644 57.1201 16.0222 57.0518 16.5144H59.7998V16.3572C59.7907 15.9197 59.6722 15.5824 59.4443 15.3455C59.2165 15.1039 58.8929 14.9832 58.4736 14.9832ZM74.3604 19.6589C73.9912 20.101 73.4694 20.4451 72.7949 20.6912C72.1204 20.9327 71.373 21.0535 70.5527 21.0535C69.6914 21.0535 68.9349 20.8666 68.2832 20.4929C67.6361 20.1147 67.1348 19.5678 66.7793 18.8523C66.4284 18.1368 66.2484 17.296 66.2393 16.3298V15.6531C66.2393 14.6596 66.4056 13.8005 66.7383 13.0759C67.0755 12.3468 67.5586 11.7908 68.1875 11.408C68.821 11.0206 69.5615 10.8269 70.4092 10.8269C71.5895 10.8269 72.5124 11.1095 73.1777 11.6746C73.8431 12.2351 74.2373 13.0531 74.3604 14.1287H72.3643C72.2731 13.559 72.0703 13.142 71.7559 12.8777C71.446 12.6134 71.0176 12.4812 70.4707 12.4812C69.7734 12.4812 69.2425 12.7432 68.8779 13.2673C68.5133 13.7914 68.3288 14.5707 68.3242 15.6052V16.241C68.3242 17.2846 68.5225 18.073 68.9189 18.6062C69.3154 19.1394 69.8965 19.406 70.6621 19.406C71.4323 19.406 71.9814 19.2419 72.3096 18.9138V17.198H70.4434V15.6873H74.3604V19.6589ZM78.209 20.9167H76.1582V10.9636H78.209V20.9167ZM86.1045 16.8494H82.167V20.9167H80.1162V10.9636H86.5967V12.6248H82.167V15.1951H86.1045V16.8494Z" fill="black"/>
</svg>
