<svg width="50" height="50" viewBox="0 0 50 50" fill="none" xmlns="http://www.w3.org/2000/svg">
<g filter="url(#filter0_d)">
<circle cx="25" cy="21" r="21" fill="#FA9B2D"/>
<path d="M34 20.5H32.5V16.5C32.5 15.4 31.6 14.5 30.5 14.5H26.5V13C26.5 11.62 25.38 10.5 24 10.5C22.62 10.5 21.5 11.62 21.5 13V14.5H17.5C16.4 14.5 15.51 15.4 15.51 16.5V20.3H17C18.49 20.3 19.7 21.51 19.7 23C19.7 24.49 18.49 25.7 17 25.7H15.5V29.5C15.5 30.6 16.4 31.5 17.5 31.5H21.3V30C21.3 28.51 22.51 27.3 24 27.3C25.49 27.3 26.7 28.51 26.7 30V31.5H30.5C31.6 31.5 32.5 30.6 32.5 29.5V25.5H34C35.38 25.5 36.5 24.38 36.5 23C36.5 21.62 35.38 20.5 34 20.5Z" fill="#2D2D2D"/>
</g>
<defs>
<filter id="filter0_d" x="0" y="0" width="50" height="50" filterUnits="userSpaceOnUse" color-interpolation-filters="sRGB">
<feFlood flood-opacity="0" result="BackgroundImageFix"/>
<feColorMatrix in="SourceAlpha" type="matrix" values="0 0 0 0 0 0 0 0 0 0 0 0 0 0 0 0 0 0 127 0"/>
<feOffset dy="4"/>
<feGaussianBlur stdDeviation="2"/>
<feColorMatrix type="matrix" values="0 0 0 0 0 0 0 0 0 0 0 0 0 0 0 0 0 0 0.25 0"/>
<feBlend mode="normal" in2="BackgroundImageFix" result="effect1_dropShadow"/>
<feBlend mode="normal" in="SourceGraphic" in2="effect1_dropShadow" result="shape"/>
</filter>
</defs>
</svg>
