<svg width="50" height="50" viewBox="0 0 50 50" fill="none" xmlns="http://www.w3.org/2000/svg">
<g filter="url(#filter0_d)">
<circle cx="25" cy="21" r="21" fill="#FA9B2D"/>
<path fill-rule="evenodd" clip-rule="evenodd" d="M32.7273 12.0909H28.3573C27.9182 10.8782 26.7682 10 25.4091 10C24.05 10 22.9 10.8782 22.4609 12.0909H18.0909C16.9409 12.0909 16 13.0318 16 14.1818V30.9091C16 32.0591 16.9409 33 18.0909 33H32.7273C33.8773 33 34.8182 32.0591 34.8182 30.9091V14.1818C34.8182 13.0318 33.8773 12.0909 32.7273 12.0909ZM25.4091 12.0909C25.9841 12.0909 26.4545 12.5614 26.4545 13.1364C26.4545 13.7114 25.9841 14.1818 25.4091 14.1818C24.8341 14.1818 24.3636 13.7114 24.3636 13.1364C24.3636 12.5614 24.8341 12.0909 25.4091 12.0909ZM19.1364 30.9091H31.6818C32.2568 30.9091 32.7273 30.4386 32.7273 29.8636V15.2273C32.7273 14.6523 32.2568 14.1818 31.6818 14.1818H30.6364V15.2273C30.6364 16.3773 29.6955 17.3182 28.5455 17.3182H22.2727C21.1227 17.3182 20.1818 16.3773 20.1818 15.2273V14.1818H19.1364C18.5614 14.1818 18.0909 14.6523 18.0909 15.2273V29.8636C18.0909 30.4386 18.5614 30.9091 19.1364 30.9091Z" fill="#2D2D2D"/>
</g>
<defs>
<filter id="filter0_d" x="0" y="0" width="50" height="50" filterUnits="userSpaceOnUse" color-interpolation-filters="sRGB">
<feFlood flood-opacity="0" result="BackgroundImageFix"/>
<feColorMatrix in="SourceAlpha" type="matrix" values="0 0 0 0 0 0 0 0 0 0 0 0 0 0 0 0 0 0 127 0"/>
<feOffset dy="4"/>
<feGaussianBlur stdDeviation="2"/>
<feColorMatrix type="matrix" values="0 0 0 0 0 0 0 0 0 0 0 0 0 0 0 0 0 0 0.25 0"/>
<feBlend mode="normal" in2="BackgroundImageFix" result="effect1_dropShadow"/>
<feBlend mode="normal" in="SourceGraphic" in2="effect1_dropShadow" result="shape"/>
</filter>
</defs>
</svg>
