<svg width="50" height="50" viewBox="0 0 50 50" fill="none" xmlns="http://www.w3.org/2000/svg">
<g filter="url(#filter0_d)">
<circle cx="25" cy="21" r="21" fill="white"/>
<path d="M22.247 28.7435V23.1185H26.747V28.7435C26.747 29.3622 27.2532 29.8685 27.872 29.8685H31.247C31.8657 29.8685 32.372 29.3622 32.372 28.7435V20.8685H34.2845C34.802 20.8685 35.0495 20.2272 34.6557 19.8897L25.2507 11.4185C24.8232 11.036 24.1707 11.036 23.7432 11.4185L14.3382 19.8897C13.9557 20.2272 14.192 20.8685 14.7095 20.8685H16.622V28.7435C16.622 29.3622 17.1282 29.8685 17.747 29.8685H21.122C21.7407 29.8685 22.247 29.3622 22.247 28.7435Z" fill="#2D2D2D"/>
</g>
<defs>
<filter id="filter0_d" x="0" y="0" width="50" height="50" filterUnits="userSpaceOnUse" color-interpolation-filters="sRGB">
<feFlood flood-opacity="0" result="BackgroundImageFix"/>
<feColorMatrix in="SourceAlpha" type="matrix" values="0 0 0 0 0 0 0 0 0 0 0 0 0 0 0 0 0 0 127 0"/>
<feOffset dy="4"/>
<feGaussianBlur stdDeviation="2"/>
<feColorMatrix type="matrix" values="0 0 0 0 0 0 0 0 0 0 0 0 0 0 0 0 0 0 0.25 0"/>
<feBlend mode="normal" in2="BackgroundImageFix" result="effect1_dropShadow"/>
<feBlend mode="normal" in="SourceGraphic" in2="effect1_dropShadow" result="shape"/>
</filter>
</defs>
</svg>
