<svg width="50" height="50" viewBox="0 0 50 50" fill="none" xmlns="http://www.w3.org/2000/svg">
<g filter="url(#filter0_d)">
<circle cx="25" cy="21" r="21" fill="#A7DFFF"/>
<path fill-rule="evenodd" clip-rule="evenodd" d="M28.6084 23.6923H29.6288L35.1184 29.1948C35.648 29.7244 35.648 30.5769 35.1184 31.1065L35.1055 31.1194C34.5759 31.649 33.7234 31.649 33.1938 31.1194L27.6913 25.6298V24.6094L27.3426 24.2477C25.5342 25.7977 23.0671 26.5985 20.4451 26.1594C16.8542 25.5523 13.9867 22.5556 13.5476 18.939C12.8888 13.4752 17.4742 8.87688 22.938 9.54855C26.5546 9.98771 29.5513 12.8552 30.1584 16.446C30.5976 19.0681 29.7967 21.5352 28.2467 23.3435L28.6084 23.6923ZM16.0664 17.8799C16.0664 21.0961 18.6626 23.6924 21.8789 23.6924C25.0951 23.6924 27.6914 21.0961 27.6914 17.8799C27.6914 14.6636 25.0951 12.0674 21.8789 12.0674C18.6626 12.0674 16.0664 14.6636 16.0664 17.8799Z" fill="#2D2D2D"/>
<path fill-rule="evenodd" clip-rule="evenodd" d="M25.75 15.0833V20.9167C25.75 21.375 25.375 21.75 24.9167 21.75H19.0833C18.625 21.75 18.25 21.375 18.25 20.9167V15.0833C18.25 14.625 18.625 14.25 19.0833 14.25H24.9167C25.375 14.25 25.75 14.625 25.75 15.0833ZM21.5834 19.8792L20.7084 18.825C20.6209 18.7209 20.4626 18.725 20.3834 18.8334L19.3459 20.1667C19.2376 20.3042 19.3334 20.5042 19.5084 20.5042H24.5042C24.6751 20.5042 24.7751 20.3084 24.6709 20.1709L23.2084 18.2209C23.1251 18.1084 22.9584 18.1084 22.8751 18.2167L21.5834 19.8792Z" fill="#2D2D2D"/>
</g>
<defs>
<filter id="filter0_d" x="0" y="0" width="50" height="50" filterUnits="userSpaceOnUse" color-interpolation-filters="sRGB">
<feFlood flood-opacity="0" result="BackgroundImageFix"/>
<feColorMatrix in="SourceAlpha" type="matrix" values="0 0 0 0 0 0 0 0 0 0 0 0 0 0 0 0 0 0 127 0"/>
<feOffset dy="4"/>
<feGaussianBlur stdDeviation="2"/>
<feColorMatrix type="matrix" values="0 0 0 0 0 0 0 0 0 0 0 0 0 0 0 0 0 0 0.25 0"/>
<feBlend mode="normal" in2="BackgroundImageFix" result="effect1_dropShadow"/>
<feBlend mode="normal" in="SourceGraphic" in2="effect1_dropShadow" result="shape"/>
</filter>
</defs>
</svg>
