<svg width="50" height="50" viewBox="0 0 50 50" fill="none" xmlns="http://www.w3.org/2000/svg">
<g filter="url(#filter0_d)">
<circle cx="25" cy="21" r="21" fill="white"/>
<path fill-rule="evenodd" clip-rule="evenodd" d="M33.127 20.9998C33.127 21.3682 33.0945 21.7148 33.0512 22.0615L35.337 23.849C35.5429 24.0115 35.597 24.304 35.467 24.5423L33.3004 28.2907C33.1704 28.529 32.8887 28.6265 32.6395 28.529L29.942 27.4457C29.3787 27.8682 28.772 28.2365 28.1112 28.5073L27.6995 31.3782C27.667 31.6382 27.4395 31.8332 27.1687 31.8332H22.8354C22.5645 31.8332 22.337 31.6382 22.3045 31.3782L21.8929 28.5073C21.232 28.2365 20.6254 27.879 20.062 27.4457L17.3645 28.529C17.1262 28.6157 16.8337 28.529 16.7037 28.2907L14.537 24.5423C14.407 24.304 14.4612 24.0115 14.667 23.849L16.9529 22.0615C16.9095 21.7148 16.877 21.3573 16.877 20.9998C16.877 20.6423 16.9095 20.2848 16.9529 19.9382L14.667 18.1507C14.4612 17.9882 14.3962 17.6957 14.537 17.4573L16.7037 13.709C16.8337 13.4707 17.1154 13.3732 17.3645 13.4707L20.062 14.554C20.6254 14.1315 21.232 13.7632 21.8929 13.4923L22.3045 10.6215C22.337 10.3615 22.5645 10.1665 22.8354 10.1665H27.1687C27.4395 10.1665 27.667 10.3615 27.6995 10.6215L28.1112 13.4923C28.772 13.7632 29.3787 14.1207 29.942 14.554L32.6395 13.4707C32.8779 13.384 33.1704 13.4707 33.3004 13.709L35.467 17.4573C35.597 17.6957 35.5429 17.9882 35.337 18.1507L33.0512 19.9382C33.0945 20.2848 33.127 20.6315 33.127 20.9998ZM21.2103 20.9998C21.2103 23.0907 22.9112 24.7915 25.002 24.7915C27.0928 24.7915 28.7937 23.0907 28.7937 20.9998C28.7937 18.909 27.0928 17.2082 25.002 17.2082C22.9112 17.2082 21.2103 18.909 21.2103 20.9998Z" fill="#2D2D2D"/>
</g>
<defs>
<filter id="filter0_d" x="0" y="0" width="50" height="50" filterUnits="userSpaceOnUse" color-interpolation-filters="sRGB">
<feFlood flood-opacity="0" result="BackgroundImageFix"/>
<feColorMatrix in="SourceAlpha" type="matrix" values="0 0 0 0 0 0 0 0 0 0 0 0 0 0 0 0 0 0 127 0"/>
<feOffset dy="4"/>
<feGaussianBlur stdDeviation="2"/>
<feColorMatrix type="matrix" values="0 0 0 0 0 0 0 0 0 0 0 0 0 0 0 0 0 0 0.25 0"/>
<feBlend mode="normal" in2="BackgroundImageFix" result="effect1_dropShadow"/>
<feBlend mode="normal" in="SourceGraphic" in2="effect1_dropShadow" result="shape"/>
</filter>
</defs>
</svg>
