<svg width="50" height="50" viewBox="0 0 50 50" fill="none" xmlns="http://www.w3.org/2000/svg">
<g filter="url(#filter0_d)">
<circle cx="25" cy="21" r="21" fill="#C4C4C4"/>
<path fill-rule="evenodd" clip-rule="evenodd" d="M33.127 21.0003C33.127 21.3687 33.0945 21.7153 33.0512 22.062L35.337 23.8495C35.5429 24.012 35.597 24.3045 35.467 24.5428L33.3004 28.2912C33.1704 28.5295 32.8887 28.627 32.6395 28.5295L29.942 27.4462C29.3787 27.8687 28.772 28.237 28.1112 28.5078L27.6995 31.3787C27.667 31.6387 27.4395 31.8337 27.1687 31.8337H22.8354C22.5645 31.8337 22.337 31.6387 22.3045 31.3787L21.8929 28.5078C21.232 28.237 20.6254 27.8795 20.062 27.4462L17.3645 28.5295C17.1262 28.6162 16.8337 28.5295 16.7037 28.2912L14.537 24.5428C14.407 24.3045 14.4612 24.012 14.667 23.8495L16.9529 22.062C16.9095 21.7153 16.877 21.3578 16.877 21.0003C16.877 20.6428 16.9095 20.2853 16.9529 19.9387L14.667 18.1512C14.4612 17.9887 14.3962 17.6962 14.537 17.4578L16.7037 13.7095C16.8337 13.4712 17.1154 13.3737 17.3645 13.4712L20.062 14.5545C20.6254 14.132 21.232 13.7637 21.8929 13.4928L22.3045 10.622C22.337 10.362 22.5645 10.167 22.8354 10.167H27.1687C27.4395 10.167 27.667 10.362 27.6995 10.622L28.1112 13.4928C28.772 13.7637 29.3787 14.1212 29.942 14.5545L32.6395 13.4712C32.8779 13.3845 33.1704 13.4712 33.3004 13.7095L35.467 17.4578C35.597 17.6962 35.5429 17.9887 35.337 18.1512L33.0512 19.9387C33.0945 20.2853 33.127 20.632 33.127 21.0003ZM21.2103 21.0003C21.2103 23.0912 22.9112 24.792 25.002 24.792C27.0928 24.792 28.7937 23.0912 28.7937 21.0003C28.7937 18.9095 27.0928 17.2087 25.002 17.2087C22.9112 17.2087 21.2103 18.9095 21.2103 21.0003Z" fill="#2D2D2D"/>
</g>
<defs>
<filter id="filter0_d" x="0" y="0" width="50" height="50" filterUnits="userSpaceOnUse" color-interpolation-filters="sRGB">
<feFlood flood-opacity="0" result="BackgroundImageFix"/>
<feColorMatrix in="SourceAlpha" type="matrix" values="0 0 0 0 0 0 0 0 0 0 0 0 0 0 0 0 0 0 127 0"/>
<feOffset dy="4"/>
<feGaussianBlur stdDeviation="2"/>
<feColorMatrix type="matrix" values="0 0 0 0 0 0 0 0 0 0 0 0 0 0 0 0 0 0 0.25 0"/>
<feBlend mode="normal" in2="BackgroundImageFix" result="effect1_dropShadow"/>
<feBlend mode="normal" in="SourceGraphic" in2="effect1_dropShadow" result="shape"/>
</filter>
</defs>
</svg>
