<svg width="88" height="12" viewBox="0 0 88 12" fill="none" xmlns="http://www.w3.org/2000/svg">
<path d="M5.65332 11V2.83789H8.61328V1.13574H0.628906V2.83789H3.58887V11H5.65332ZM11.1152 2.31836C11.7305 2.31836 12.2363 1.82617 12.2363 1.21094C12.2363 0.588867 11.7305 0.0966797 11.1152 0.0966797C10.5 0.0966797 9.9873 0.588867 9.9873 1.21094C9.9873 1.82617 10.5 2.31836 11.1152 2.31836ZM10.1172 11H12.1064V3.47363H10.1172V11ZM14.123 11H16.1123V6.46094C16.1123 5.59961 16.666 4.9707 17.4453 4.9707C18.2246 4.9707 18.6895 5.43555 18.6895 6.24219V11H20.6035V6.37207C20.6035 5.55859 21.123 4.9707 21.9297 4.9707C22.7705 4.9707 23.1875 5.42188 23.1875 6.33105V11H25.1768V5.83203C25.1768 4.28027 24.2402 3.30957 22.7363 3.30957C21.6836 3.30957 20.8154 3.86328 20.4668 4.69727H20.3438C20.043 3.83594 19.3184 3.30957 18.2588 3.30957C17.2676 3.30957 16.4814 3.83594 16.1738 4.69727H16.0508V3.47363H14.123V11ZM31.9854 8.87402C31.7734 9.38672 31.2334 9.67383 30.4473 9.67383C29.4082 9.67383 28.752 8.95605 28.7246 7.80762V7.70508H33.8994V7.11035C33.8994 4.73145 32.5869 3.30957 30.3652 3.30957C28.123 3.30957 26.7422 4.82715 26.7422 7.27441C26.7422 9.70801 28.0957 11.1572 30.3926 11.1572C32.2383 11.1572 33.5439 10.2754 33.8379 8.87402H31.9854ZM30.3721 4.79297C31.3018 4.79297 31.9033 5.43555 31.9443 6.46777H28.7314C28.7998 5.45605 29.4492 4.79297 30.3721 4.79297ZM42.4854 11.1572C44.8027 11.1572 46.1973 9.69434 46.1973 7.2334C46.1973 4.79297 44.7822 3.30957 42.4854 3.30957C40.1885 3.30957 38.7734 4.7998 38.7734 7.2334C38.7734 9.6875 40.168 11.1572 42.4854 11.1572ZM42.4854 9.58496C41.4189 9.58496 40.8174 8.72363 40.8174 7.2334C40.8174 5.75684 41.4258 4.88867 42.4854 4.88867C43.5381 4.88867 44.1533 5.75684 44.1533 7.2334C44.1533 8.72363 43.5449 9.58496 42.4854 9.58496ZM48.4053 11H50.3945V5.05273H51.9531V3.54199H50.3535V2.90625C50.3535 2.25 50.6406 1.92871 51.4199 1.92871C51.6797 1.92871 51.8848 1.94922 52.0146 1.96973V0.595703C51.7275 0.554688 51.3926 0.520508 50.9893 0.520508C49.1709 0.520508 48.4053 1.27246 48.4053 2.76953V3.54199H47.1885V5.05273H48.4053V11ZM57.3467 1.13574V11H61.2295C64.1826 11 65.8574 9.19531 65.8574 6.00293C65.8574 2.90625 64.1621 1.13574 61.2295 1.13574H57.3467ZM59.4111 2.83789H60.9014C62.6924 2.83789 63.752 4 63.752 6.03711C63.752 8.14941 62.7266 9.29785 60.9014 9.29785H59.4111V2.83789ZM69.6172 11.1162C70.5947 11.1162 71.415 10.6992 71.8047 10.002H71.9277V11H73.8555V5.85938C73.8555 4.25293 72.7275 3.30957 70.7314 3.30957C68.8379 3.30957 67.5596 4.17773 67.4297 5.55859H69.2617C69.4258 5.08691 69.9043 4.83398 70.6221 4.83398C71.4424 4.83398 71.8936 5.20996 71.8936 5.85938V6.48145L70.0684 6.59082C68.1953 6.7002 67.1494 7.49316 67.1494 8.85352C67.1494 10.2275 68.168 11.1162 69.6172 11.1162ZM70.2734 9.66016C69.583 9.66016 69.0977 9.31152 69.0977 8.73047C69.0977 8.17676 69.5146 7.85547 70.3691 7.80078L71.8936 7.69824V8.25879C71.8936 9.05176 71.1963 9.66016 70.2734 9.66016ZM76.3779 1.67578V3.54199H75.2021V5.05273H76.3779V8.96973C76.3779 10.4326 77.1025 11.0273 78.9346 11.0273C79.3174 11.0273 79.6865 10.9863 79.9326 10.9385V9.46875C79.7412 9.48926 79.6045 9.50293 79.3447 9.50293C78.668 9.50293 78.3672 9.18848 78.3672 8.51172V5.05273H79.9326V3.54199H78.3672V1.67578H76.3779ZM83.6582 11.1162C84.6357 11.1162 85.4561 10.6992 85.8457 10.002H85.9688V11H87.8965V5.85938C87.8965 4.25293 86.7686 3.30957 84.7725 3.30957C82.8789 3.30957 81.6006 4.17773 81.4707 5.55859H83.3027C83.4668 5.08691 83.9453 4.83398 84.6631 4.83398C85.4834 4.83398 85.9346 5.20996 85.9346 5.85938V6.48145L84.1094 6.59082C82.2363 6.7002 81.1904 7.49316 81.1904 8.85352C81.1904 10.2275 82.209 11.1162 83.6582 11.1162ZM84.3145 9.66016C83.624 9.66016 83.1387 9.31152 83.1387 8.73047C83.1387 8.17676 83.5557 7.85547 84.4102 7.80078L85.9346 7.69824V8.25879C85.9346 9.05176 85.2373 9.66016 84.3145 9.66016Z" fill="black"/>
</svg>
