<svg width="46" height="19" viewBox="0 0 46 19" fill="none" xmlns="http://www.w3.org/2000/svg">
<path d="M15.0938 12.2227C15.0391 13.4102 14.7188 14.4609 14.1328 15.375C13.5469 16.2812 12.7227 16.9844 11.6602 17.4844C10.6055 17.9844 9.39844 18.2344 8.03906 18.2344C5.79688 18.2344 4.03125 17.5039 2.74219 16.043C1.45312 14.582 0.808594 12.5195 0.808594 9.85547V9.01172C0.808594 7.33984 1.09766 5.87891 1.67578 4.62891C2.26172 3.37109 3.10156 2.40234 4.19531 1.72266C5.28906 1.03516 6.55469 0.691406 7.99219 0.691406C10.0625 0.691406 11.7266 1.23828 12.9844 2.33203C14.2422 3.41797 14.957 4.91797 15.1289 6.83203H11.0273C10.9961 5.79297 10.7344 5.04688 10.2422 4.59375C9.75 4.14062 9 3.91406 7.99219 3.91406C6.96875 3.91406 6.21875 4.29688 5.74219 5.0625C5.26562 5.82812 5.01562 7.05078 4.99219 8.73047V9.9375C4.99219 11.7578 5.21875 13.0586 5.67188 13.8398C6.13281 14.6211 6.92188 15.0117 8.03906 15.0117C8.98438 15.0117 9.70703 14.7891 10.207 14.3438C10.707 13.8984 10.9727 13.1914 11.0039 12.2227H15.0938ZM31.4883 9.82031C31.4883 11.4844 31.1797 12.957 30.5625 14.2383C29.9453 15.5195 29.0664 16.5078 27.9258 17.2031C26.793 17.8906 25.5 18.2344 24.0469 18.2344C22.5938 18.2344 21.3047 17.9023 20.1797 17.2383C19.0547 16.5664 18.1758 15.6094 17.543 14.3672C16.918 13.125 16.5898 11.6992 16.5586 10.0898V9.12891C16.5586 7.45703 16.8633 5.98438 17.4727 4.71094C18.0898 3.42969 18.9688 2.44141 20.1094 1.74609C21.2578 1.05078 22.5625 0.703125 24.0234 0.703125C25.4688 0.703125 26.7578 1.04688 27.8906 1.73438C29.0234 2.42188 29.9023 3.40234 30.5273 4.67578C31.1602 5.94141 31.4805 7.39453 31.4883 9.03516V9.82031ZM27.3047 9.10547C27.3047 7.41016 27.0195 6.125 26.4492 5.25C25.8867 4.36719 25.0781 3.92578 24.0234 3.92578C21.9609 3.92578 20.8711 5.47266 20.7539 8.56641L20.7422 9.82031C20.7422 11.4922 21.0195 12.7773 21.5742 13.6758C22.1289 14.5742 22.9531 15.0234 24.0469 15.0234C25.0859 15.0234 25.8867 14.582 26.4492 13.6992C27.0117 12.8164 27.2969 11.5469 27.3047 9.89062V9.10547ZM45.2695 18H33.3633V15.4219L38.8477 9.65625C40.1992 8.11719 40.875 6.89453 40.875 5.98828C40.875 5.25391 40.7148 4.69531 40.3945 4.3125C40.0742 3.92969 39.6094 3.73828 39 3.73828C38.3984 3.73828 37.9102 3.99609 37.5352 4.51172C37.1602 5.01953 36.9727 5.65625 36.9727 6.42188H33.0117C33.0117 5.375 33.2734 4.41016 33.7969 3.52734C34.3203 2.63672 35.0469 1.94141 35.9766 1.44141C36.9062 0.941406 37.9453 0.691406 39.0938 0.691406C40.9375 0.691406 42.3555 1.11719 43.3477 1.96875C44.3477 2.82031 44.8477 4.04297 44.8477 5.63672C44.8477 6.30859 44.7227 6.96484 44.4727 7.60547C44.2227 8.23828 43.832 8.90625 43.3008 9.60938C42.7773 10.3047 41.9297 11.2383 40.7578 12.4102L38.5547 14.9531H45.2695V18Z" fill="black"/>
</svg>
