<svg width="98" height="24" viewBox="0 0 98 24" fill="none" xmlns="http://www.w3.org/2000/svg">
<path d="M14.5508 18H10.4609V10.875H4.40234V18H0.289062V0.9375H4.40234V7.71094H10.4609V0.9375H14.5508V18ZM24.5352 16.6289C23.6992 17.6992 22.5703 18.2344 21.1484 18.2344C19.7578 18.2344 18.7031 17.832 17.9844 17.0273C17.2734 16.2148 16.918 15.0508 16.918 13.5352V5.32031H20.8672V13.5586C20.8672 14.6445 21.3945 15.1875 22.4492 15.1875C23.3555 15.1875 24 14.8633 24.3828 14.2148V5.32031H28.3555V18H24.6523L24.5352 16.6289ZM34.2617 5.32031L34.3906 6.80859C35.2891 5.66016 36.4961 5.08594 38.0117 5.08594C39.6133 5.08594 40.6953 5.72266 41.2578 6.99609C42.1172 5.72266 43.3594 5.08594 44.9844 5.08594C47.5547 5.08594 48.875 6.64062 48.9453 9.75V18H44.9844V9.99609C44.9844 9.34766 44.875 8.875 44.6562 8.57812C44.4375 8.28125 44.0391 8.13281 43.4609 8.13281C42.6797 8.13281 42.0977 8.48047 41.7148 9.17578L41.7266 9.33984V18H37.7656V10.0195C37.7656 9.35547 37.6602 8.875 37.4492 8.57812C37.2383 8.28125 36.8359 8.13281 36.2422 8.13281C35.4844 8.13281 34.9062 8.48047 34.5078 9.17578V18H30.5586V5.32031H34.2617ZM55.3672 18H51.4062V5.32031H55.3672V18ZM51.1719 2.05078C51.1719 1.48828 51.375 1.02734 51.7812 0.667969C52.1875 0.308594 52.7148 0.128906 53.3633 0.128906C54.0117 0.128906 54.5391 0.308594 54.9453 0.667969C55.3516 1.02734 55.5547 1.48828 55.5547 2.05078C55.5547 2.61328 55.3516 3.07422 54.9453 3.43359C54.5391 3.79297 54.0117 3.97266 53.3633 3.97266C52.7148 3.97266 52.1875 3.79297 51.7812 3.43359C51.375 3.07422 51.1719 2.61328 51.1719 2.05078ZM57.3125 11.5664C57.3125 9.55859 57.7461 7.97656 58.6133 6.82031C59.4805 5.66406 60.6914 5.08594 62.2461 5.08594C63.3789 5.08594 64.332 5.53125 65.1055 6.42188V0H69.0664V18H65.5156L65.3164 16.6406C64.5039 17.7031 63.4727 18.2344 62.2227 18.2344C60.7148 18.2344 59.5195 17.6562 58.6367 16.5C57.7539 15.3438 57.3125 13.6992 57.3125 11.5664ZM61.2617 11.8125C61.2617 14.0625 61.918 15.1875 63.2305 15.1875C64.1055 15.1875 64.7305 14.8203 65.1055 14.0859V9.25781C64.7461 8.50781 64.1289 8.13281 63.2539 8.13281C62.0352 8.13281 61.375 9.11719 61.2734 11.0859L61.2617 11.8125ZM75.4766 18H71.5156V5.32031H75.4766V18ZM71.2812 2.05078C71.2812 1.48828 71.4844 1.02734 71.8906 0.667969C72.2969 0.308594 72.8242 0.128906 73.4727 0.128906C74.1211 0.128906 74.6484 0.308594 75.0547 0.667969C75.4609 1.02734 75.6641 1.48828 75.6641 2.05078C75.6641 2.61328 75.4609 3.07422 75.0547 3.43359C74.6484 3.79297 74.1211 3.97266 73.4727 3.97266C72.8242 3.97266 72.2969 3.79297 71.8906 3.43359C71.4844 3.07422 71.2812 2.61328 71.2812 2.05078ZM82.5195 2.16797V5.32031H84.6055V8.0625H82.5195V13.8633C82.5195 14.3398 82.6055 14.6719 82.7773 14.8594C82.9492 15.0469 83.2891 15.1406 83.7969 15.1406C84.1875 15.1406 84.5156 15.1172 84.7812 15.0703V17.8945C84.0703 18.1211 83.3281 18.2344 82.5547 18.2344C81.1953 18.2344 80.1914 17.9141 79.543 17.2734C78.8945 16.6328 78.5703 15.6602 78.5703 14.3555V8.0625H76.9531V5.32031H78.5703V2.16797H82.5195ZM91.2383 12.4688L93.3477 5.32031H97.5781L92.4102 20.1211L92.1875 20.6602C91.4531 22.3008 90.1562 23.1211 88.2969 23.1211C87.7812 23.1211 87.2383 23.043 86.668 22.8867V20.0625H87.1836C87.7383 20.0625 88.1602 19.9805 88.4492 19.8164C88.7461 19.6602 88.9648 19.375 89.1055 18.9609L89.4219 18.1172L85.0156 5.32031H89.2344L91.2383 12.4688Z" fill="black"/>
</svg>
