<svg width="140" height="23" viewBox="0 0 140 23" fill="none" xmlns="http://www.w3.org/2000/svg">
<path d="M14.6836 4.11328H9.5625V18H5.44922V4.11328H0.421875V0.9375H14.6836V4.11328ZM21.3281 18.2344C19.3828 18.2344 17.8086 17.6562 16.6055 16.5C15.4023 15.3359 14.8008 13.8242 14.8008 11.9648V11.6367C14.8008 10.3398 15.0391 9.19531 15.5156 8.20312C16 7.21094 16.7031 6.44531 17.625 5.90625C18.5469 5.35938 19.6406 5.08594 20.9062 5.08594C22.6875 5.08594 24.0938 5.64062 25.125 6.75C26.1562 7.85156 26.6719 9.39062 26.6719 11.3672V12.9023H18.8203C18.9609 13.6133 19.2695 14.1719 19.7461 14.5781C20.2227 14.9844 20.8398 15.1875 21.5977 15.1875C22.8477 15.1875 23.8242 14.75 24.5273 13.875L26.332 16.0078C25.8398 16.6875 25.1406 17.2305 24.2344 17.6367C23.3359 18.0352 22.3672 18.2344 21.3281 18.2344ZM20.8828 8.13281C19.7266 8.13281 19.0391 8.89844 18.8203 10.4297H22.8047V10.125C22.8203 9.49219 22.6602 9.00391 22.3242 8.66016C21.9883 8.30859 21.5078 8.13281 20.8828 8.13281ZM32.0039 5.32031L32.1328 6.80859C33.0312 5.66016 34.2383 5.08594 35.7539 5.08594C37.3555 5.08594 38.4375 5.72266 39 6.99609C39.8594 5.72266 41.1016 5.08594 42.7266 5.08594C45.2969 5.08594 46.6172 6.64062 46.6875 9.75V18H42.7266V9.99609C42.7266 9.34766 42.6172 8.875 42.3984 8.57812C42.1797 8.28125 41.7812 8.13281 41.2031 8.13281C40.4219 8.13281 39.8398 8.48047 39.457 9.17578L39.4688 9.33984V18H35.5078V10.0195C35.5078 9.35547 35.4023 8.875 35.1914 8.57812C34.9805 8.28125 34.5781 8.13281 33.9844 8.13281C33.2266 8.13281 32.6484 8.48047 32.25 9.17578V18H28.3008V5.32031H32.0039ZM60.7148 11.7539C60.7148 13.7227 60.2695 15.2969 59.3789 16.4766C58.4961 17.6484 57.3008 18.2344 55.793 18.2344C54.6289 18.2344 53.6719 17.8086 52.9219 16.957V22.875H48.9727V5.32031H52.6641L52.7812 6.49219C53.5391 5.55469 54.5352 5.08594 55.7695 5.08594C57.332 5.08594 58.5469 5.66406 59.4141 6.82031C60.2812 7.96875 60.7148 9.55078 60.7148 11.5664V11.7539ZM56.7656 11.5078C56.7656 9.25781 56.1094 8.13281 54.7969 8.13281C53.8594 8.13281 53.2344 8.46875 52.9219 9.14062V14.1328C53.2656 14.8359 53.8984 15.1875 54.8203 15.1875C56.0781 15.1875 56.7266 14.1016 56.7656 11.9297V11.5078ZM68.6016 18.2344C66.6562 18.2344 65.082 17.6562 63.8789 16.5C62.6758 15.3359 62.0742 13.8242 62.0742 11.9648V11.6367C62.0742 10.3398 62.3125 9.19531 62.7891 8.20312C63.2734 7.21094 63.9766 6.44531 64.8984 5.90625C65.8203 5.35938 66.9141 5.08594 68.1797 5.08594C69.9609 5.08594 71.3672 5.64062 72.3984 6.75C73.4297 7.85156 73.9453 9.39062 73.9453 11.3672V12.9023H66.0938C66.2344 13.6133 66.543 14.1719 67.0195 14.5781C67.4961 14.9844 68.1133 15.1875 68.8711 15.1875C70.1211 15.1875 71.0977 14.75 71.8008 13.875L73.6055 16.0078C73.1133 16.6875 72.4141 17.2305 71.5078 17.6367C70.6094 18.0352 69.6406 18.2344 68.6016 18.2344ZM68.1562 8.13281C67 8.13281 66.3125 8.89844 66.0938 10.4297H70.0781V10.125C70.0938 9.49219 69.9336 9.00391 69.5977 8.66016C69.2617 8.30859 68.7812 8.13281 68.1562 8.13281ZM83.2148 8.89453L81.9141 8.80078C80.6719 8.80078 79.875 9.19141 79.5234 9.97266V18H75.5742V5.32031H79.2773L79.4062 6.94922C80.0703 5.70703 80.9961 5.08594 82.1836 5.08594C82.6055 5.08594 82.9727 5.13281 83.2852 5.22656L83.2148 8.89453ZM91.4297 18C91.2891 17.7422 91.1641 17.3633 91.0547 16.8633C90.3281 17.7773 89.3125 18.2344 88.0078 18.2344C86.8125 18.2344 85.7969 17.875 84.9609 17.1562C84.125 16.4297 83.707 15.5195 83.707 14.4258C83.707 13.0508 84.2148 12.0117 85.2305 11.3086C86.2461 10.6055 87.7227 10.2539 89.6602 10.2539H90.8789V9.58594C90.8789 8.42188 90.375 7.83984 89.3672 7.83984C88.4297 7.83984 87.9609 8.30078 87.9609 9.22266H84.0117C84.0117 7.99609 84.5312 7 85.5703 6.23438C86.6172 5.46875 87.9492 5.08594 89.5664 5.08594C91.1836 5.08594 92.4609 5.48047 93.3984 6.26953C94.3359 7.05859 94.8164 8.14062 94.8398 9.51562V15.1289C94.8555 16.293 95.0352 17.1836 95.3789 17.8008V18H91.4297ZM88.957 15.4219C89.4492 15.4219 89.8555 15.3164 90.1758 15.1055C90.5039 14.8945 90.7383 14.6562 90.8789 14.3906V12.3633H89.7305C88.3555 12.3633 87.668 12.9805 87.668 14.2148C87.668 14.5742 87.7891 14.8672 88.0312 15.0938C88.2734 15.3125 88.582 15.4219 88.957 15.4219ZM101.637 2.16797V5.32031H103.723V8.0625H101.637V13.8633C101.637 14.3398 101.723 14.6719 101.895 14.8594C102.066 15.0469 102.406 15.1406 102.914 15.1406C103.305 15.1406 103.633 15.1172 103.898 15.0703V17.8945C103.188 18.1211 102.445 18.2344 101.672 18.2344C100.312 18.2344 99.3086 17.9141 98.6602 17.2734C98.0117 16.6328 97.6875 15.6602 97.6875 14.3555V8.0625H96.0703V5.32031H97.6875V2.16797H101.637ZM112.84 16.6289C112.004 17.6992 110.875 18.2344 109.453 18.2344C108.062 18.2344 107.008 17.832 106.289 17.0273C105.578 16.2148 105.223 15.0508 105.223 13.5352V5.32031H109.172V13.5586C109.172 14.6445 109.699 15.1875 110.754 15.1875C111.66 15.1875 112.305 14.8633 112.688 14.2148V5.32031H116.66V18H112.957L112.84 16.6289ZM126.504 8.89453L125.203 8.80078C123.961 8.80078 123.164 9.19141 122.812 9.97266V18H118.863V5.32031H122.566L122.695 6.94922C123.359 5.70703 124.285 5.08594 125.473 5.08594C125.895 5.08594 126.262 5.13281 126.574 5.22656L126.504 8.89453ZM133.828 18.2344C131.883 18.2344 130.309 17.6562 129.105 16.5C127.902 15.3359 127.301 13.8242 127.301 11.9648V11.6367C127.301 10.3398 127.539 9.19531 128.016 8.20312C128.5 7.21094 129.203 6.44531 130.125 5.90625C131.047 5.35938 132.141 5.08594 133.406 5.08594C135.188 5.08594 136.594 5.64062 137.625 6.75C138.656 7.85156 139.172 9.39062 139.172 11.3672V12.9023H131.32C131.461 13.6133 131.77 14.1719 132.246 14.5781C132.723 14.9844 133.34 15.1875 134.098 15.1875C135.348 15.1875 136.324 14.75 137.027 13.875L138.832 16.0078C138.34 16.6875 137.641 17.2305 136.734 17.6367C135.836 18.0352 134.867 18.2344 133.828 18.2344ZM133.383 8.13281C132.227 8.13281 131.539 8.89844 131.32 10.4297H135.305V10.125C135.32 9.49219 135.16 9.00391 134.824 8.66016C134.488 8.30859 134.008 8.13281 133.383 8.13281Z" fill="black"/>
</svg>
