<svg width="38" height="10" viewBox="0 0 38 10" fill="none" xmlns="http://www.w3.org/2000/svg">
<path d="M0.496094 2.99414H1.73828C1.73828 2.05664 2.36523 1.42383 3.32031 1.42383C4.25781 1.42383 4.81445 2.05078 4.81445 2.87109C4.81445 3.55664 4.5332 3.97852 3.46094 5.09766L0.566406 8.10938V9H6.26172V7.88086H2.35938V7.78125L4.22266 5.90625C5.70508 4.41797 6.13281 3.7207 6.13281 2.74219C6.13281 1.35352 4.99023 0.339844 3.40234 0.339844C1.69727 0.339844 0.496094 1.44141 0.496094 2.99414ZM11.7227 9H12.9883V7.31836H14.1543V6.20508H12.9883V0.544922H11.1191C9.95312 2.29688 8.71094 4.29492 7.59766 6.20508V7.31836H11.7227V9ZM8.85742 6.14648C9.72461 4.66406 10.7559 3.01758 11.6641 1.65234H11.7402V6.22852H8.85742V6.14648ZM26.1426 9V0.544922H24.8359V4.11914H20.4941V0.544922H19.1816V9H20.4941V5.25586H24.8359V9H26.1426ZM28.1172 9H29.377V5.19727C29.377 4.30078 30.0508 3.68555 31.0059 3.68555C31.2285 3.68555 31.6035 3.72656 31.709 3.75586V2.57227C31.5742 2.54297 31.334 2.52539 31.1465 2.52539C30.3145 2.52539 29.6055 2.97656 29.4238 3.60352H29.3301V2.63672H28.1172V9ZM32.6465 4.41797C32.6465 5.36133 33.209 5.90039 34.4219 6.18164L35.5352 6.44531C36.1738 6.59766 36.4727 6.85547 36.4727 7.25391C36.4727 7.77539 35.916 8.13867 35.1309 8.13867C34.3691 8.13867 33.9004 7.82812 33.7422 7.33008H32.4824C32.5938 8.4375 33.584 9.12305 35.1016 9.12305C36.625 9.12305 37.7441 8.32031 37.7441 7.13672C37.7441 6.21094 37.1758 5.68945 35.9629 5.4082L34.9023 5.16211C34.2109 4.99805 33.8887 4.75195 33.8887 4.35938C33.8887 3.84375 34.4219 3.49805 35.125 3.49805C35.8398 3.49805 36.2969 3.80859 36.4141 4.2832H37.6211C37.498 3.18164 36.5605 2.51367 35.125 2.51367C33.6836 2.51367 32.6465 3.31055 32.6465 4.41797Z" fill="black"/>
</svg>
