<svg width="102" height="13" viewBox="0 0 102 13" fill="none" xmlns="http://www.w3.org/2000/svg">
<path d="M5.42773 8.86914H1.37305V6.23828H5.21094V5.14844H1.37305V2.67578H5.42773V1.54492H0.0605469V10H5.42773V8.86914ZM7.17969 10H8.43945V6.26758C8.43945 5.24219 9.03125 4.60938 9.96289 4.60938C10.8945 4.60938 11.3398 5.125 11.3398 6.17969V10H12.5996V5.88086C12.5996 4.36328 11.8145 3.51367 10.3906 3.51367C9.42969 3.51367 8.79688 3.94141 8.48633 4.64453H8.39258V3.63672H7.17969V10ZM14.8203 2.03125V3.6543H13.8066V4.66211H14.8203V8.32422C14.8203 9.54883 15.377 10.041 16.7773 10.041C17.0234 10.041 17.2578 10.0117 17.4629 9.97656V8.97461C17.2871 8.99219 17.1758 9.00391 16.9824 9.00391C16.3555 9.00391 16.0801 8.70508 16.0801 8.01953V4.66211H17.4629V3.6543H16.0801V2.03125H14.8203ZM19.5957 2.5C20.0352 2.5 20.3926 2.14258 20.3926 1.70898C20.3926 1.26953 20.0352 0.912109 19.5957 0.912109C19.1562 0.912109 18.7988 1.26953 18.7988 1.70898C18.7988 2.14258 19.1562 2.5 19.5957 2.5ZM18.9688 10H20.2227V3.63672H18.9688V10ZM22.0742 10H23.334V6.19727C23.334 5.30078 24.0078 4.68555 24.9629 4.68555C25.1855 4.68555 25.5605 4.72656 25.666 4.75586V3.57227C25.5312 3.54297 25.291 3.52539 25.1035 3.52539C24.2715 3.52539 23.5625 3.97656 23.3809 4.60352H23.2871V3.63672H22.0742V10ZM30.8984 8.29492C30.6641 8.81055 30.1426 9.0918 29.3809 9.0918C28.373 9.0918 27.7227 8.36523 27.6816 7.21094V7.15234H32.1875V6.71875C32.1875 4.72656 31.1152 3.51367 29.3398 3.51367C27.541 3.51367 26.3984 4.80859 26.3984 6.83008C26.3984 8.86328 27.5176 10.123 29.3457 10.123C30.8047 10.123 31.8359 9.41992 32.1113 8.29492H30.8984ZM29.334 4.53906C30.2656 4.53906 30.875 5.21289 30.9043 6.24414H27.6816C27.752 5.21875 28.4023 4.53906 29.334 4.53906ZM42.4941 8.86914H38.4395V6.23828H42.2773V5.14844H38.4395V2.67578H42.4941V1.54492H37.127V10H42.4941V8.86914ZM46.625 7.7207L48.0195 10.0117H49.4668L47.3398 6.79492L49.4434 3.64844H48.0371L46.6777 5.92188H46.5781L45.207 3.64844H43.7363L45.8691 6.8418L43.7539 10.0117H45.1367L46.5312 7.7207H46.625ZM54.0957 3.52539C53.2285 3.52539 52.4785 3.96484 52.0918 4.69141H51.998V3.63672H50.7852V12.1211H52.0449V9.03906H52.1445C52.4785 9.71289 53.1992 10.1055 54.1074 10.1055C55.7188 10.1055 56.7441 8.82812 56.7441 6.81836C56.7441 4.79688 55.7188 3.52539 54.0957 3.52539ZM53.7383 9.02734C52.6836 9.02734 52.0215 8.17773 52.0215 6.81836C52.0215 5.45312 52.6836 4.60352 53.7441 4.60352C54.8105 4.60352 55.4492 5.43555 55.4492 6.81836C55.4492 8.20117 54.8105 9.02734 53.7383 9.02734ZM62.4453 8.29492C62.2109 8.81055 61.6895 9.0918 60.9277 9.0918C59.9199 9.0918 59.2695 8.36523 59.2285 7.21094V7.15234H63.7344V6.71875C63.7344 4.72656 62.6621 3.51367 60.8867 3.51367C59.0879 3.51367 57.9453 4.80859 57.9453 6.83008C57.9453 8.86328 59.0645 10.123 60.8926 10.123C62.3516 10.123 63.3828 9.41992 63.6582 8.29492H62.4453ZM60.8809 4.53906C61.8125 4.53906 62.4219 5.21289 62.4512 6.24414H59.2285C59.2988 5.21875 59.9492 4.53906 60.8809 4.53906ZM65.2461 10H66.5059V6.19727C66.5059 5.30078 67.1797 4.68555 68.1348 4.68555C68.3574 4.68555 68.7324 4.72656 68.8379 4.75586V3.57227C68.7031 3.54297 68.4629 3.52539 68.2754 3.52539C67.4434 3.52539 66.7344 3.97656 66.5527 4.60352H66.459V3.63672H65.2461V10ZM70.7012 2.5C71.1406 2.5 71.498 2.14258 71.498 1.70898C71.498 1.26953 71.1406 0.912109 70.7012 0.912109C70.2617 0.912109 69.9043 1.26953 69.9043 1.70898C69.9043 2.14258 70.2617 2.5 70.7012 2.5ZM70.0742 10H71.3281V3.63672H70.0742V10ZM73.1797 10H74.4395V6.0918C74.4395 5.25977 75.0195 4.60938 75.7871 4.60938C76.5371 4.60938 77.0176 5.06055 77.0176 5.78711V10H78.2539V5.97461C78.2539 5.20703 78.7871 4.60938 79.6016 4.60938C80.4277 4.60938 80.8379 5.03711 80.8379 5.91602V10H82.0977V5.61133C82.0977 4.28711 81.3477 3.51367 80.0586 3.51367C79.1738 3.51367 78.4414 3.96484 78.1191 4.65039H78.0195C77.7383 3.96484 77.1348 3.51367 76.2617 3.51367C75.4121 3.51367 74.7676 3.93555 74.4863 4.65039H74.3926V3.63672H73.1797V10ZM88.0508 8.29492C87.8164 8.81055 87.2949 9.0918 86.5332 9.0918C85.5254 9.0918 84.875 8.36523 84.834 7.21094V7.15234H89.3398V6.71875C89.3398 4.72656 88.2676 3.51367 86.4922 3.51367C84.6934 3.51367 83.5508 4.80859 83.5508 6.83008C83.5508 8.86328 84.6699 10.123 86.498 10.123C87.957 10.123 88.9883 9.41992 89.2637 8.29492H88.0508ZM86.4863 4.53906C87.418 4.53906 88.0273 5.21289 88.0566 6.24414H84.834C84.9043 5.21875 85.5547 4.53906 86.4863 4.53906ZM90.8516 10H92.1113V6.26758C92.1113 5.24219 92.7031 4.60938 93.6348 4.60938C94.5664 4.60938 95.0117 5.125 95.0117 6.17969V10H96.2715V5.88086C96.2715 4.36328 95.4863 3.51367 94.0625 3.51367C93.1016 3.51367 92.4688 3.94141 92.1582 4.64453H92.0645V3.63672H90.8516V10ZM98.4922 2.03125V3.6543H97.4785V4.66211H98.4922V8.32422C98.4922 9.54883 99.0488 10.041 100.449 10.041C100.695 10.041 100.93 10.0117 101.135 9.97656V8.97461C100.959 8.99219 100.848 9.00391 100.654 9.00391C100.027 9.00391 99.752 8.70508 99.752 8.01953V4.66211H101.135V3.6543H99.752V2.03125H98.4922Z" fill="black"/>
</svg>
