<svg width="66" height="12" viewBox="0 0 66 12" fill="none" xmlns="http://www.w3.org/2000/svg">
<path d="M5.49414 7.85742H1.5332V0.544922H0.220703V9H5.49414V7.85742ZM8.77539 9.10547C9.61328 9.10547 10.3105 8.74219 10.6914 8.09766H10.791V9H12.0039V4.64648C12.0039 3.31055 11.1016 2.51367 9.50195 2.51367C8.05469 2.51367 7.02344 3.21094 6.89453 4.2832H8.11328C8.25391 3.82031 8.74023 3.55664 9.44336 3.55664C10.3047 3.55664 10.75 3.94922 10.75 4.64648V5.20312L9.02148 5.30859C7.50391 5.40234 6.64844 6.06445 6.64844 7.20703C6.64844 8.36719 7.54492 9.10547 8.77539 9.10547ZM9.09766 8.0918C8.41211 8.0918 7.91406 7.74609 7.91406 7.1543C7.91406 6.57422 8.3125 6.26367 9.19141 6.20508L10.75 6.09961V6.65039C10.75 7.4707 10.0469 8.0918 9.09766 8.0918ZM13.6504 4.41797C13.6504 5.36133 14.2129 5.90039 15.4258 6.18164L16.5391 6.44531C17.1777 6.59766 17.4766 6.85547 17.4766 7.25391C17.4766 7.77539 16.9199 8.13867 16.1348 8.13867C15.373 8.13867 14.9043 7.82812 14.7461 7.33008H13.4863C13.5977 8.4375 14.5879 9.12305 16.1055 9.12305C17.6289 9.12305 18.748 8.32031 18.748 7.13672C18.748 6.21094 18.1797 5.68945 16.9668 5.4082L15.9062 5.16211C15.2148 4.99805 14.8926 4.75195 14.8926 4.35938C14.8926 3.84375 15.4258 3.49805 16.1289 3.49805C16.8438 3.49805 17.3008 3.80859 17.418 4.2832H18.625C18.502 3.18164 17.5645 2.51367 16.1289 2.51367C14.6875 2.51367 13.6504 3.31055 13.6504 4.41797ZM20.6641 1.03125V2.6543H19.6504V3.66211H20.6641V7.32422C20.6641 8.54883 21.2207 9.04102 22.6211 9.04102C22.8672 9.04102 23.1016 9.01172 23.3066 8.97656V7.97461C23.1309 7.99219 23.0195 8.00391 22.8262 8.00391C22.1992 8.00391 21.9238 7.70508 21.9238 7.01953V3.66211H23.3066V2.6543H21.9238V1.03125H20.6641ZM28.4277 9H29.8047L33.4844 1.68164V0.544922H27.7246V1.65234H32.1543V1.74609L28.4277 9ZM38.4941 0.544922V9H41.5469C44.0664 9 45.5254 7.44141 45.5254 4.75195C45.5254 2.0918 44.0547 0.544922 41.5469 0.544922H38.4941ZM39.8066 1.67578H41.4004C43.1523 1.67578 44.1895 2.81836 44.1895 4.76953C44.1895 6.73828 43.1699 7.86914 41.4004 7.86914H39.8066V1.67578ZM48.9004 9.10547C49.7383 9.10547 50.4355 8.74219 50.8164 8.09766H50.916V9H52.1289V4.64648C52.1289 3.31055 51.2266 2.51367 49.627 2.51367C48.1797 2.51367 47.1484 3.21094 47.0195 4.2832H48.2383C48.3789 3.82031 48.8652 3.55664 49.5684 3.55664C50.4297 3.55664 50.875 3.94922 50.875 4.64648V5.20312L49.1465 5.30859C47.6289 5.40234 46.7734 6.06445 46.7734 7.20703C46.7734 8.36719 47.6699 9.10547 48.9004 9.10547ZM49.2227 8.0918C48.5371 8.0918 48.0391 7.74609 48.0391 7.1543C48.0391 6.57422 48.4375 6.26367 49.3164 6.20508L50.875 6.09961V6.65039C50.875 7.4707 50.1719 8.0918 49.2227 8.0918ZM54.3438 11.3086C55.6445 11.3086 56.248 10.8223 56.793 9.29297L59.1719 2.63672H57.8359L56.2422 7.73438H56.1426L54.543 2.63672H53.1719L55.4805 9.01758L55.3867 9.3457C55.1699 10.0195 54.8301 10.2715 54.2324 10.2715C54.1152 10.2715 53.9219 10.2656 53.8223 10.248V11.2793C53.9395 11.2969 54.2383 11.3086 54.3438 11.3086ZM60.1387 4.41797C60.1387 5.36133 60.7012 5.90039 61.9141 6.18164L63.0273 6.44531C63.666 6.59766 63.9648 6.85547 63.9648 7.25391C63.9648 7.77539 63.4082 8.13867 62.623 8.13867C61.8613 8.13867 61.3926 7.82812 61.2344 7.33008H59.9746C60.0859 8.4375 61.0762 9.12305 62.5938 9.12305C64.1172 9.12305 65.2363 8.32031 65.2363 7.13672C65.2363 6.21094 64.668 5.68945 63.4551 5.4082L62.3945 5.16211C61.7031 4.99805 61.3809 4.75195 61.3809 4.35938C61.3809 3.84375 61.9141 3.49805 62.6172 3.49805C63.332 3.49805 63.7891 3.80859 63.9062 4.2832H65.1133C64.9902 3.18164 64.0527 2.51367 62.6172 2.51367C61.1758 2.51367 60.1387 3.31055 60.1387 4.41797Z" fill="black"/>
</svg>
